<svg xmlns="http://www.w3.org/2000/svg" viewBox="0 0 772.5 862.5">
  <defs>
    <style>
      .clsu-1 {
        fill: #e3be71;
      }

      .clsu-2 {
        fill: #be965e;
      }

      .clsu-3 {
        fill: #b78e5b;
      }

      .clsu-4 {
        fill: #c49d61;
      }

      .clsu-5 {
        fill: #cca565;
      }

      .clsu-6 {
        fill: #c9a164;
      }

      .clsu-7 {
        fill: #d1ab68;
      }

      .clsu-8 {
        fill: #d3ac69;
      }

      .clsu-9 {
        fill: #cfa867;
      }

      .clsu-10 {
        fill: #d8b26b;
      }

      .clsu-11 {
        fill: #e1bc70;
      }

      .clsu-12 {
        fill: #e0bb70;
      }

      .clsu-13 {
        fill: #dab46d;
      }

      .clsu-14 {
        fill: #b9915c;
      }

      .clsu-15 {
        fill: #c0985f;
      }

      .clsu-16 {
        fill: #cda666;
      }

      .clsu-17 {
        fill: #caa264;
      }

      .clsu-18 {
        fill: #c1995f;
      }

      .clsu-19 {
        fill: #b48b59;
      }

      .clsu-20 {
        fill: #af8657;
      }

      .clsu-21 {
        fill: #aa8054;
      }

      .clsu-22 {
        fill: #a67c52;
      }

      .clsu-23 {
        fill: #a57449;
      }

      .clsu-24 {
        fill: #dfb96f;
      }

      .clsu-25 {
        fill: #d0a967;
      }
    </style>
  </defs>
  <title>bamboo</title>
  <g id="Layer_2" data-name="Layer 2">
    <g id="Layer_4" data-name="Layer 4">
      <rect class="clsu-1" x="694.74" y="72.5" width="65.58" height="157.66" transform="translate(1455.06 302.66) rotate(-180)"/>
      <rect class="clsu-1" x="694.74" y="385.53" width="65.58" height="157.66" transform="translate(1455.06 928.71) rotate(-180)"/>
      <rect class="clsu-1" x="683.5" y="700.84" width="76.82" height="157.66" transform="translate(1443.82 1559.34) rotate(-180)"/>
      <rect class="clsu-2" x="683.5" y="229.01" width="76.82" height="157.66" transform="translate(1443.82 615.69) rotate(-180)"/>
      <rect class="clsu-2" x="694.74" y="542.04" width="77.76" height="157.66" transform="translate(1467.24 1241.74) rotate(-180)"/>
      <rect class="clsu-1" x="538.61" y="79.5" width="78.44" height="154.65"/>
      <rect class="clsu-1" x="538.61" y="386.56" width="78.44" height="154.65"/>
      <rect class="clsu-1" x="538.61" y="695.85" width="91.89" height="154.65"/>
      <rect class="clsu-2" x="538.61" y="233.03" width="91.89" height="154.65"/>
      <rect class="clsu-2" x="524.04" y="540.08" width="93.01" height="154.65"/>
    </g>
    <g id="Layer_3" data-name="Layer 3">
      <polygon class="clsu-3" points="651.41 299.61 690 365.43 611.69 381.32 651.41 299.61"/>
      <polygon class="clsu-2" points="690 365.43 690 469.84 611.69 381.32 690 365.43"/>
      <polygon class="clsu-4" points="611.69 381.32 583.32 516.37 690 469.84 611.69 381.32"/>
      <polygon class="clsu-5" points="690 469.84 644.61 576.51 583.32 516.37 690 469.84"/>
      <polygon class="clsu-6" points="644.61 576.51 711.56 612.83 690 469.84 644.61 576.51"/>
      <polygon class="clsu-7" points="711.56 612.83 604.88 666.17 644.61 576.51 711.56 612.83"/>
      <polygon class="clsu-8" points="604.88 666.17 583.32 516.37 644.61 576.51 604.88 666.17"/>
      <polygon class="clsu-9" points="711.56 612.83 690 701.35 604.88 666.17 711.56 612.83"/>
      <polygon class="clsu-10" points="604.88 666.17 486.86 734.26 690 701.35 604.88 666.17"/>
      <polygon class="clsu-11" points="690 701.35 431.25 818.24 486.86 734.26 690 701.35"/>
      <polygon class="clsu-1" points="486.86 734.26 442.6 657.09 604.88 666.17 486.86 734.26"/>
      <polygon class="clsu-12" points="431.25 818.24 393.8 734.26 486.86 734.26 431.25 818.24"/>
      <polygon class="clsu-1" points="393.8 734.26 442.6 657.09 486.86 734.26 393.8 734.26"/>
      <polygon class="clsu-13" points="393.8 734.26 295.07 818.24 431.25 818.24 393.8 734.26"/>
      <polygon class="clsu-14" points="431.25 818.24 431.25 862.5 295.07 818.24 431.25 818.24"/>
      <polygon class="clsu-15" points="295.07 818.24 276.91 855.69 431.25 862.5 295.07 818.24"/>
      <polygon class="clsu-16" points="295.07 818.24 188.39 742.2 393.8 734.26 295.07 818.24"/>
      <polygon class="clsu-17" points="188.39 742.2 188.39 632.12 304.39 737.72 188.39 742.2"/>
      <polygon class="clsu-15" points="188.39 742.2 106.68 657.09 188.39 632.12 188.39 742.2"/>
      <polygon class="clsu-18" points="188.39 632.12 121.43 461.89 106.68 657.09 188.39 632.12"/>
      <polygon class="clsu-14" points="106.68 657.09 77.17 461.89 121.43 461.89 106.68 657.09"/>
      <polygon class="clsu-19" points="77.17 461.89 133.91 365.43 121.43 461.89 77.17 461.89"/>
      <polygon class="clsu-20" points="77.17 461.89 66.96 347.27 133.91 365.43 77.17 461.89"/>
      <polygon class="clsu-21" points="133.91 365.43 106.68 208.82 66.96 347.27 133.91 365.43"/>
      <polygon class="clsu-20" points="66.96 347.27 14.75 196.33 106.68 208.82 66.96 347.27"/>
      <polygon class="clsu-22" points="106.68 208.82 60.15 96.46 14.75 196.33 106.68 208.82"/>
      <polygon class="clsu-23" points="14.75 196.33 0 76.04 60.15 96.46 14.75 196.33"/>
      <polygon class="clsu-22" points="0 76.04 98.73 0 60.15 96.46 0 76.04"/>
      <polygon class="clsu-23" points="98.73 0 106.68 208.82 60.15 96.46 98.73 0"/>
      <polygon class="clsu-24" points="442.6 657.09 317.76 676.38 393.8 734.26 442.6 657.09"/>
      <polygon class="clsu-18" points="317.76 676.38 302.44 743.91 393.8 734.26 317.76 676.38"/>
      <polygon class="clsu-25" points="317.76 676.38 188.39 632.12 302.44 742.77 317.76 676.38"/>
    </g>
  </g>
</svg>
