<svg xmlns="http://www.w3.org/2000/svg" viewBox="0 0 705.73 836.31">
  <defs>
    <style>
      .clsx-1 {
        fill: #ff8028;
      }

      .clsx-2 {
        fill: #fd7d28;
      }

      .clsx-3 {
        fill: #ff9c57;
      }

      .clsx-4 {
        fill: #dd681e;
      }

      .clsx-5 {
        fill: #f47528;
      }

      .clsx-6 {
        fill: #cb5f17;
      }

      .clsx-7 {
        fill: #ed7125;
      }

      .clsx-8 {
        fill: #a44a02;
      }

      .clsx-9 {
        fill: #d6641a;
      }

      .clsx-10 {
        fill: #a54b03;
      }

      .clsx-11 {
        fill: #8a3c00;
      }

      .clsx-12 {
        fill: #823700;
      }

      .clsx-13 {
        fill: #833800;
      }

      .clsx-14 {
        fill: #813700;
      }

      .clsx-15 {
        fill: #7c3400;
      }

      .clsx-16 {
        fill: #803c0f;
      }

      .clsx-17 {
        fill: #a14901;
      }

      .clsx-18 {
        fill: #940;
      }

      .clsx-19 {
        fill: #9a4400;
      }

      .clsx-20 {
        fill: #924000;
      }

      .clsx-21 {
        fill: #8b3d00;
      }

      .clsx-22 {
        fill: #8f3e00;
      }

      .clsx-23 {
        fill: #5c2400;
      }

      .clsx-24 {
        fill: #8c3d00;
      }

      .clsx-25 {
        fill: #803600;
      }

      .clsx-26 {
        fill: #893c00;
      }

      .clsx-27 {
        fill: #873b00;
      }

      .clsx-28 {
        fill: #914000;
      }

      .clsx-29 {
        fill: #65b20a;
      }

      .clsx-30 {
        fill: #4c8508;
      }

      .clsx-31 {
        fill: #c1e09d;
      }
    </style>
  </defs>
  <title>bigtree</title>
  <g id="Layer_2" data-name="Layer 2">
    <g id="Layer_2-2" data-name="Layer 2">
      <polygon class="clsx-1" points="436.5 769.81 499.5 705.81 473.5 835.81 436.5 769.81"/>
      <polygon class="clsx-2" points="473.5 835.81 576.5 835.81 499.5 705.81 473.5 835.81"/>
      <polygon class="clsx-3" points="499.5 705.81 551.5 646.81 576.5 835.81 499.5 705.81"/>
      <polygon class="clsx-4" points="576.5 835.81 704.5 835.81 640.5 741.81 576.5 835.81"/>
      <polygon class="clsx-5" points="640.5 741.81 564.46 744.76 576.5 835.81 640.5 741.81"/>
      <polygon class="clsx-2" points="640.5 741.81 551.5 646.81 564 745.31 640.5 741.81"/>
      <polygon class="clsx-6" points="640.5 741.81 703.5 741.81 704.5 835.81 640.5 741.81"/>
      <polygon class="clsx-4" points="703.5 741.81 646.5 638.81 640.5 741.81 703.5 741.81"/>
      <polygon class="clsx-7" points="646.5 638.81 551.5 646.81 640.5 741.81 646.5 638.81"/>
      <polygon class="clsx-8" points="646.5 638.81 703.5 602.81 703.5 741.81 646.5 638.81"/>
      <polygon class="clsx-6" points="646.5 638.81 595.5 573.81 551.5 646.81 646.5 638.81"/>
      <polygon class="clsx-9" points="595.5 573.81 703.5 602.81 646.5 638.81 595.5 573.81"/>
      <polygon class="clsx-6" points="595.5 573.81 621.5 489.81 703.5 602.81 595.5 573.81"/>
      <polygon class="clsx-8" points="621.5 489.81 704.5 461.81 703.5 602.81 621.5 489.81"/>
      <polygon class="clsx-10" points="621.5 489.81 616.5 428.81 704.5 461.81 621.5 489.81"/>
      <polygon class="clsx-11" points="616.5 428.81 602.5 359.81 687.5 365.81 616.5 428.81"/>
      <polygon class="clsx-10" points="704.5 461.81 687.5 365.81 616.5 428.81 704.5 461.81"/>
      <polygon class="clsx-12" points="687.5 365.81 704.5 336.81 704.5 461.81 687.5 365.81"/>
      <polygon class="clsx-13" points="704.5 336.81 602.5 359.81 687.5 365.81 704.5 336.81"/>
      <polygon class="clsx-14" points="602.5 359.81 582.5 253.81 704.5 336.81 602.5 359.81"/>
      <polygon class="clsx-15" points="582.5 253.81 668.5 211.81 704.5 336.81 582.5 253.81"/>
      <polygon class="clsx-11" points="668.5 211.81 704.5 112.81 704.5 336.81 668.5 211.81"/>
      <polygon class="clsx-15" points="668.5 211.81 602.5 112.81 704.5 112.81 668.5 211.81"/>
      <polygon class="clsx-16" points="602.5 112.81 582.5 253.81 668.5 211.81 602.5 112.81"/>
      <polygon class="clsx-11" points="602.5 112.81 557.5 112.81 582.5 253.81 602.5 112.81"/>
      <polygon class="clsx-15" points="557.5 112.81 551.5 66.81 602.5 112.81 557.5 112.81"/>
      <polygon class="clsx-15" points="602.5 112.81 704.5 66.81 704.5 112.81 602.5 112.81"/>
      <polygon class="clsx-16" points="704.5 66.81 551.5 66.81 602.5 112.81 704.5 66.81"/>
      <polygon class="clsx-17" points="483.43 291.9 469.31 238.27 545.53 291.9 483.43 291.9"/>
      <polygon class="clsx-17" points="483.43 291.9 417.09 248.15 469.31 238.27 483.43 291.9"/>
      <polygon class="clsx-18" points="417.09 248.15 381.1 189.57 469.31 238.27 417.09 248.15"/>
      <polygon class="clsx-19" points="382.51 190.98 343.69 252.38 431.91 246.03 382.51 190.98"/>
      <polygon class="clsx-20" points="343.69 252.38 278.76 200.16 383.92 192.4 343.69 252.38"/>
      <polygon class="clsx-19" points="343.69 252.38 249.12 242.5 278.76 200.16 343.69 252.38"/>
      <polygon class="clsx-21" points="249.12 242.5 227.95 169.11 278.76 200.16 249.12 242.5"/>
      <polygon class="clsx-22" points="227.95 169.11 195.49 200.16 249.12 242.5 227.95 169.11"/>
      <polygon class="clsx-13" points="385.33 193.81 315.46 143.7 316.17 199.45 385.33 193.81"/>
      <polygon class="clsx-15" points="317.58 202.28 261.83 135.23 315.46 143.7 317.58 202.28"/>
      <polygon class="clsx-20" points="315.46 143.7 253.36 81.59 261.83 135.23 315.46 143.7"/>
      <polygon class="clsx-15" points="261.83 135.23 203.96 81.59 253.36 81.59 261.83 135.23"/>
      <polygon class="clsx-15" points="203.96 81.59 222.31 16.67 253.36 81.59 203.96 81.59"/>
      <polygon class="clsx-23" points="203.96 81.59 163.03 13.85 222.31 16.67 203.96 81.59"/>
      <polygon class="clsx-24" points="601.99 235.45 699.38 164.87 699.38 334.25 601.99 235.45"/>
      <polygon class="clsx-25" points="601.99 235.45 545.53 135.23 699.38 164.87 601.99 235.45"/>
      <polygon class="clsx-26" points="545.53 135.23 483.43 219.92 601.99 235.45 545.53 135.23"/>
      <polygon class="clsx-27" points="545.53 135.23 428.38 193.1 483.43 219.92 545.53 135.23"/>
      <polygon class="clsx-22" points="483.43 219.92 387.45 193.1 428.38 193.1 483.43 219.92"/>
      <polygon class="clsx-28" points="483.43 219.92 469.31 238.27 387.45 193.1 483.43 219.92"/>
      <polygon class="clsx-15" points="540.59 135.94 705.74 11.73 700.09 168.4 540.59 135.94"/>
      <polygon class="clsx-26" points="545.53 135.23 510.25 54.78 615.4 86.54 545.53 135.23"/>
      <polygon class="clsx-15" points="510.25 54.78 496.13 13.85 606.23 13.85 510.25 54.78"/>
      <polygon class="clsx-16" points="606.23 13.85 611.87 88.65 510.25 54.78 606.23 13.85"/>
      <polygon class="clsx-23" points="606.23 13.85 699.38 32.19 611.87 88.65 606.23 13.85"/>
      <polygon class="clsx-16" points="698.68 34.31 605.52 13.14 705.74 11.73 698.68 34.31"/>
      <polygon class="clsx-29" points="196.19 219.21 204.66 253.09 163.73 277.08 163.73 238.97 196.19 219.21"/>
      <polygon class="clsx-30" points="212.56 246.61 241.05 266.8 225.62 311.66 200.8 282.75 212.56 246.61"/>
      <polygon class="clsx-31" points="253.5 219.79 281.99 239.98 266.56 284.85 241.73 255.93 253.5 219.79"/>
      <polygon class="clsx-29" points="477.92 74.41 506.41 94.6 490.98 139.47 466.16 110.55 477.92 74.41"/>
      <polygon class="clsx-31" points="442.65 43.76 457.89 75.17 422.76 107.06 414.94 69.76 442.65 43.76"/>
      <polygon class="clsx-30" points="389.08 0.56 416.53 22.15 398.88 66.19 375.53 36.07 389.08 0.56"/>
      <polygon class="clsx-29" points="489.23 0 504.47 31.41 469.34 63.3 461.51 26.01 489.23 0"/>
      <polygon class="clsx-31" points="538.63 19.76 553.87 51.17 518.74 83.06 510.92 45.77 538.63 19.76"/>
      <polygon class="clsx-31" points="234.3 185.34 242.77 219.21 201.84 243.21 201.84 205.1 234.3 185.34"/>
      <polygon class="clsx-31" points="217.38 152.41 210.41 186.63 163.13 190.62 179.57 156.24 217.38 152.41"/>
      <polygon class="clsx-30" points="156.69 200.4 149.72 234.62 102.44 238.61 118.88 204.23 156.69 200.4"/>
      <polygon class="clsx-29" points="263.94 78.07 272.41 111.94 231.48 135.94 231.48 97.83 263.94 78.07"/>
      <polygon class="clsx-31" points="207.49 89.36 215.96 123.23 175.02 147.23 175.02 109.12 207.49 89.36"/>
      <polygon class="clsx-31" points="155.26 79.48 163.73 113.35 122.8 137.35 122.8 99.24 155.26 79.48"/>
      <polygon class="clsx-31" points="175.02 0.44 183.49 34.31 142.56 58.31 142.56 20.2 175.02 0.44"/>
      <polygon class="clsx-29" points="153.39 68.69 124.56 88.39 87.85 58.33 123.59 45.1 153.39 68.69"/>
      <polygon class="clsx-31" points="240.9 68.69 212.07 88.39 175.36 58.33 211.1 45.1 240.9 68.69"/>
      <polygon class="clsx-29" points="142.1 163.26 113.27 182.96 76.56 152.9 112.3 139.67 142.1 163.26"/>
      <polygon class="clsx-29" points="46.58 78.07 29.64 110.53 0 78.07 46.58 78.07"/>
      <polygon class="clsx-30" points="103.04 95 86.1 127.47 56.46 95 103.04 95"/>
      <polygon class="clsx-29" points="388.15 72.42 371.22 104.89 341.58 72.42 388.15 72.42"/>
      <polygon class="clsx-30" points="76.22 28.66 70.57 66.78 29.64 34.31 76.22 28.66"/>
      <polygon class="clsx-31" points="351.46 14.55 345.81 52.66 304.88 20.2 351.46 14.55"/>
      <polygon class="clsx-29" points="310.02 28.31 319.25 65.72 269.07 51.2 310.02 28.31"/>
      <polygon class="clsx-6" points="436 771.31 315 833.31 473 836.31 436 771.31"/>
    </g>
  </g>
</svg>
