<svg xmlns="http://www.w3.org/2000/svg" viewBox="0 0 693.44 622.88">
  <defs>
    <style>
      .cls-1 {
        fill: #24112e;
      }

      .cls-2 {
        fill: #351c4d;
      }

      .cls-3 {
        fill: #753797;
      }

      .cls-4 {
        fill: #78389a;
      }

      .cls-5 {
        fill: #853eaa;
      }

      .cls-6 {
        fill: #9043b6;
      }

      .cls-7 {
        fill: #8d41b3;
      }

      .cls-8 {
        fill: #833da7;
      }

      .cls-9 {
        fill: #7c3a9f;
      }

      .cls-10 {
        fill: #6e348f;
      }

      .cls-11 {
        fill: #653185;
      }

      .cls-12 {
        fill: #743796;
      }

      .cls-13 {
        fill: #5b2c79;
      }

      .cls-14 {
        fill: #562a73;
      }

      .cls-15 {
        fill: #4b2667;
      }

      .cls-16 {
        fill: #44235e;
      }

      .cls-17 {
        fill: #3c1f55;
      }

      .cls-18 {
        fill: #482463;
      }

      .cls-19 {
        fill: #3a1e53;
      }

      .cls-20 {
        fill: #3d1f56;
      }

      .cls-21 {
        fill: #341c4c;
      }

      .cls-22 {
        fill: #43225d;
      }

      .cls-23 {
        fill: #381d50;
      }

      .cls-24 {
        fill: #40215a;
      }

      .cls-25 {
        fill: #4b2566;
      }

      .cls-26 {
        fill: #572b75;
      }

      .cls-27 {
        fill: #622f82;
      }

      .cls-28 {
        fill: #673287;
      }

      .cls-29 {
        fill: #5d2d7b;
      }

      .cls-30 {
        fill: #5a2c78;
      }

      .cls-31 {
        fill: #402159;
      }
    </style>
  </defs>
  <title>cave</title>
  <g id="Layer_2" data-name="Layer 2">
    <g id="Layer_4" data-name="Layer 4">
      <polygon class="cls-1" points="514.21 107.68 528.04 213.39 528.04 418.88 477.66 559.16 374.92 508.78 216.85 541.38 102.25 508.78 69.65 381.34 138.8 253.9 123 68.17 187.21 32.6 348.24 32.6 499.39 65.2 514.21 107.68"/>
      <polygon class="cls-2" points="528.04 461.36 95.33 451.48 88.42 565.09 555.7 565.09 528.04 461.36"/>
    </g>
    <g id="Layer_3" data-name="Layer 3">
      <polygon class="cls-3" points="139.09 506.97 90.71 396.11 41.32 495.89 139.09 506.97"/>
      <polygon class="cls-4" points="41.32 495.89 16.13 342.69 90.71 396.11 41.32 495.89"/>
      <polygon class="cls-5" points="90.71 396.11 139.09 266.09 16.13 342.69 90.71 396.11"/>
      <polygon class="cls-6" points="16.13 342.69 0 200.57 139.09 266.09 16.13 342.69"/>
      <polygon class="cls-7" points="139.09 266.09 77.61 116.92 0 200.57 139.09 266.09"/>
      <polygon class="cls-8" points="0 200.57 6.05 102.81 77.61 116.92 0 200.57"/>
      <polygon class="cls-5" points="139.09 266.09 129.01 14.11 77.61 116.92 139.09 266.09"/>
      <polygon class="cls-9" points="6.05 102.81 129.01 14.11 77.61 116.92 6.05 102.81"/>
      <polygon class="cls-10" points="129.01 14.11 324.54 0 130.21 44.01 129.01 14.11"/>
      <polygon class="cls-11" points="324.54 0 309.43 49.39 129.01 44.35 324.54 0"/>
      <polygon class="cls-12" points="200.57 44.35 132.12 91.71 129.01 44.35 200.57 44.35"/>
      <polygon class="cls-13" points="324.54 0 405.18 65.51 309.43 49.39 324.54 0"/>
      <polygon class="cls-14" points="324.54 0 507.98 14.11 405.18 65.51 324.54 0"/>
      <polygon class="cls-15" points="507.98 14.11 507.98 116.92 405.18 65.51 507.98 14.11"/>
      <polygon class="cls-16" points="507.98 14.11 582.57 44.35 507.98 116.92 507.98 14.11"/>
      <polygon class="cls-17" points="582.57 44.35 638 140.1 507.98 116.92 582.57 44.35"/>
      <polygon class="cls-18" points="507.98 116.92 514.03 200.57 638 140.1 507.98 116.92"/>
      <polygon class="cls-19" points="638 140.1 647.07 237.86 514.03 200.57 638 140.1"/>
      <polygon class="cls-20" points="647.07 237.86 555.35 319.5 514.03 200.57 647.07 237.86"/>
      <polygon class="cls-21" points="647.07 237.86 676.3 342.69 555.35 319.5 647.07 237.86"/>
      <polygon class="cls-18" points="514.03 200.57 514.03 411.22 555.35 319.5 514.03 200.57"/>
      <polygon class="cls-22" points="514.03 411.22 676.3 342.69 555.35 319.5 514.03 411.22"/>
      <polygon class="cls-23" points="676.3 342.69 693.43 495.89 514.03 411.22 676.3 342.69"/>
      <polygon class="cls-24" points="693.43 495.89 477.75 541.24 514.03 411.22 693.43 495.89"/>
      <polygon class="cls-25" points="477.75 541.24 357.81 594.66 390.06 495.89 477.75 541.24"/>
      <polygon class="cls-26" points="390.06 495.89 216.7 523.1 357.81 594.66 390.06 495.89"/>
      <polygon class="cls-27" points="216.7 523.1 139.09 506.97 149.17 594.66 216.7 523.1"/>
      <polygon class="cls-28" points="149.17 594.66 41.32 495.89 139.09 506.97 149.17 594.66"/>
      <polygon class="cls-29" points="357.81 594.66 149.17 594.66 216.7 523.1 357.81 594.66"/>
      <polygon class="cls-2" points="693.43 495.89 625.91 615.83 477.75 541.24 693.43 495.89"/>
      <polygon class="cls-30" points="41.32 495.89 27.21 622.88 149.17 594.66 41.32 495.89"/>
      <polygon class="cls-31" points="625.91 615.83 357.81 594.66 477.75 541.24 625.91 615.83"/>
    </g>
  </g>
</svg>
