<svg xmlns="http://www.w3.org/2000/svg" viewBox="0 0 949.11 517">
  <defs>
    <style>
      .cls-1 {
        fill: #39b54a;
      }

      .cls-2 {
        fill: #99ca3a;
      }

      .cls-3 {
        fill: #9ccc39;
      }

      .cls-4 {
        fill: #b8d52e;
      }

      .cls-5 {
        fill: #cadb27;
      }

      .cls-6 {
        fill: #bfd72b;
      }

      .cls-7 {
        fill: #8fc73e;
      }

      .cls-8 {
        fill: #67bf44;
      }

      .cls-9 {
        fill: #44b749;
      }
    </style>
  </defs>
  <title>grass</title>
  <g id="Layer_2" data-name="Layer 2">
    <g id="Layer_3" data-name="Layer 3">
      <path class="cls-1" d="M917,104.58s5,217.06-54,246.66c0,0-51-7.89-25-142.08S860,7.89,831,0c0,0,39,9.87-13,104.58s-33,246.66-33,246.66S738,367,742,248.63,754,71,754,71s-60,179.57-53,256.53c0,0-57-75-51-151.94L638,373l-39-87.28L591,373s-61.49,11.84-38.25-107.54L503,398.6,468,227.91,457,398.6l-23.75-76.24L405,384.79s-64-5.92-63-71c0,0,8,102.61-29,102.61s-67-132.21-67-132.21l-12,150L183,299.94v118.4l-50-92.74L114.9,434.12S158,376.9,75,299.94c0,0,35,165.76-17,169.7s-35.49-133.2-35.49-133.2L0,517H917Z"/>
      <polygon class="cls-2" points="129.02 312.78 45.41 402.54 213.86 402.54 129.02 312.78"/>
      <polygon class="cls-3" points="45.41 402.54 165.91 480 213.86 402.54 45.41 402.54"/>
      <polygon class="cls-4" points="129.02 312.78 358.95 358.27 213.86 402.54 129.02 312.78"/>
      <polygon class="cls-5" points="358.95 358.27 432.72 418.52 213.86 402.54 358.95 358.27"/>
      <polygon class="cls-6" points="266.5 438.5 130.5 475.5 88.5 425.5 266.5 438.5"/>
      <polygon class="cls-4" points="265.5 464.02 165.91 480 213.86 402.54 265.5 464.02"/>
      <polygon class="cls-7" points="432.72 418.52 565.51 348.44 358.95 358.27 432.72 418.52"/>
      <polygon class="cls-8" points="565.51 348.44 625.76 418.52 432.72 418.52 565.51 348.44"/>
      <polygon class="cls-9" points="565.51 348.44 702 278.35 625.76 418.52 565.51 348.44"/>
      <polygon class="cls-1" points="702 278.35 813.89 251.3 625.76 418.52 702 278.35"/>
      <polygon class="cls-1" points="813.89 251.3 915.94 278.35 625.76 418.52 813.89 251.3"/>
      <polygon class="cls-7" points="915.94 278.35 928.24 389.01 787.43 340.43 915.94 278.35"/>
      <polygon class="cls-1" points="928.24 389.01 786.84 425.9 786.84 334.91 928.24 389.01"/>
      <polygon class="cls-8" points="786.84 425.9 625.76 418.52 786.84 334.91 786.84 425.9"/>
      <path class="cls-7" d="M949,285.66S954,407.42,895,424c0,0-51-4.43-25-79.69s22-112.9-7-117.33c0,0,39,5.53-13,58.66S817,424,817,424s-47,8.85-43-57.56,12-99.62,12-99.62-60,100.73-53,143.89c0,0-57-42.06-51-85.23L670,436.2l-39-49-8,49s-61.49,6.64-38.25-60.32L535,450.59l-35-95.74-11,95.74-23.75-42.76-28.25,35s-64-3.32-63-39.85c0,0,8,57.56-29,57.56s-67-74.16-67-74.16l-12,84.12-51-75.27v66.41l-50-52-18.1,60.88s43.1-32.1-39.9-75.27c0,0,35,93-17,95.19s-35.49-74.71-35.49-74.71L32,517H949Z"/>
    </g>
  </g>
</svg>
