<svg xmlns="http://www.w3.org/2000/svg" viewBox="0 0 1411 461.5">
  <defs>
    <style>
      .cls-1 {
        fill: #6a90e5;
      }

      .cls-2 {
        fill: #a67c52;
      }

      .cls-3 {
        fill: #a5754a;
      }

      .cls-4 {
        fill: #c2986a;
      }

      .cls-5 {
        fill: #b88e61;
      }

      .cls-6 {
        fill: #fadcb2;
      }

      .cls-7 {
        fill: #dfbb8e;
      }

      .cls-8 {
        fill: #c3996a;
      }

      .cls-9 {
        fill: #b58b5e;
      }

      .cls-10 {
        fill: #d2ab7d;
      }

      .cls-11 {
        fill: #a87e54;
      }

      .cls-12 {
        fill: #ac8257;
      }

      .cls-13 {
        fill: #426de8;
      }
    </style>
  </defs>
  <title>sandandwater_1</title>
  <g id="Layer_2" data-name="Layer 2">
    <g id="sand_water" data-name="sand&amp;water">
      <path class="cls-1" d="M1182.94,94.47S1004.12,13.89,994.52,61,963.2,116.76,865.9,120.19s-90.74,36-145.92,36.43S617.69,96.18,517.37,127.9,403.1,38.75,276.62,101.33s-96,72-202.37,54.86S7.07,322.5,7.07,322.5L1203,304.5Z"/>
      <polygon class="cls-2" points="809.5 0 907.5 29 693.5 86 809.5 0"/>
      <polygon class="cls-3" points="907.5 29 987.5 120 693.5 86 907.5 29"/>
      <polygon class="cls-4" points="693.5 86 633.5 186 525.5 74 693.5 86"/>
      <polygon class="cls-5" points="525.5 74 809.5 0 693.5 86 525.5 74"/>
      <polygon class="cls-6" points="525.5 74 377.5 74 431.5 186 525.5 74"/>
      <polygon class="cls-4" points="633.5 186 431.5 186 525.5 74 633.5 186"/>
      <polygon class="cls-7" points="431.5 186 232.5 213 377.5 74 431.5 186"/>
      <polygon class="cls-8" points="232.5 213 245.5 74 377.5 74 232.5 213"/>
      <polygon class="cls-9" points="245.5 74 82.5 120 232.5 213 245.5 74"/>
      <polygon class="cls-10" points="245.5 74.5 431.5 0.5 525.5 74.5 245.5 74.5"/>
      <polygon class="cls-11" points="987.5 120 758.5 153 693.5 86 987.5 120"/>
      <polygon class="cls-12" points="758.5 153 633.5 186 693.5 86 758.5 153"/>
      <path class="cls-13" d="M1248.94,147.58s-178.82-72.42-188.42-30-31.32,50.07-128.62,53.16S841.15,203,786,203.43s-102.29-54.31-202.6-25.81S469.1,97.51,342.62,153.74s-96,64.71-202.37,49.3S73.07,352.5,73.07,352.5L1269,336.32Z"/>
      <path class="cls-1" d="M1317.94,201.47S1139.12,120.89,1129.52,168s-31.32,55.72-128.62,59.15-90.74,36-145.92,36.43-102.29-60.44-202.6-28.72S538.1,145.75,411.62,208.33s-96,72-202.37,54.86S142.07,429.5,142.07,429.5L1338,411.5Z"/>
      <path class="cls-13" d="M1390.94,256.58s-178.82-72.42-188.42-30-31.32,50.07-128.62,53.16S983.15,312,928,312.43s-102.29-54.31-202.6-25.81S611.1,206.51,484.62,262.74s-96,64.71-202.37,49.3S215.07,461.5,215.07,461.5L1411,445.32Z"/>
    </g>
  </g>
</svg>
