<svg xmlns="http://www.w3.org/2000/svg" viewBox="0 0 500.5 283.81">
  <defs>
    <style>
      .cls-1 {
        fill: #b05107;
      }

      .cls-2 {
        fill: #af5006;
      }

      .cls-3 {
        fill: #b5530a;
      }

      .cls-4 {
        fill: #af5008;
      }

      .cls-5 {
        fill: #a14901;
      }

      .cls-6 {
        fill: #940;
      }

      .cls-7 {
        fill: #9a4400;
      }

      .cls-8 {
        fill: #924000;
      }

      .cls-9 {
        fill: #8b3d00;
      }

      .cls-10 {
        fill: #8f3e00;
      }

      .cls-11 {
        fill: #833800;
      }

      .cls-12 {
        fill: #7c3400;
      }

      .cls-13 {
        fill: #5c2400;
      }

      .cls-14 {
        fill: #8c3d00;
      }

      .cls-15 {
        fill: #803600;
      }

      .cls-16 {
        fill: #893c00;
      }

      .cls-17 {
        fill: #873b00;
      }

      .cls-18 {
        fill: #914000;
      }

      .cls-19 {
        fill: #803c0f;
      }

      .cls-20 {
        fill: #65b20a;
      }

      .cls-21 {
        fill: #4c8508;
      }

      .cls-22 {
        fill: #c1e09d;
      }
    </style>
  </defs>
  <title>tree</title>
  <g id="Layer_2" data-name="Layer 2">
    <g id="tree">
      <polygon class="cls-1" points="496.5 251.81 460.5 270.81 500.5 283.81 496.5 251.81"/>
      <polygon class="cls-2" points="460.5 270.81 447.5 236.81 496.5 251.81 460.5 270.81"/>
      <polygon class="cls-3" points="460.5 270.81 405.5 253.81 447.5 236.81 460.5 270.81"/>
      <polygon class="cls-2" points="405.5 253.81 386.5 206.81 447.5 236.81 405.5 253.81"/>
      <polygon class="cls-4" points="386.5 206.81 342.5 206.81 405.5 253.81 386.5 206.81"/>
      <polygon class="cls-5" points="342.5 206.81 332.5 168.81 386.5 206.81 342.5 206.81"/>
      <polygon class="cls-5" points="342.5 206.81 295.5 175.81 332.5 168.81 342.5 206.81"/>
      <polygon class="cls-6" points="295.5 175.81 270 134.31 332.5 168.81 295.5 175.81"/>
      <polygon class="cls-7" points="271 135.31 243.5 178.81 306 174.31 271 135.31"/>
      <polygon class="cls-8" points="243.5 178.81 197.5 141.81 272 136.31 243.5 178.81"/>
      <polygon class="cls-7" points="243.5 178.81 176.5 171.81 197.5 141.81 243.5 178.81"/>
      <polygon class="cls-9" points="176.5 171.81 161.5 119.81 197.5 141.81 176.5 171.81"/>
      <polygon class="cls-10" points="161.5 119.81 138.5 141.81 176.5 171.81 161.5 119.81"/>
      <polygon class="cls-11" points="273 137.31 223.5 101.81 224 141.31 273 137.31"/>
      <polygon class="cls-12" points="225 143.31 185.5 95.81 223.5 101.81 225 143.31"/>
      <polygon class="cls-8" points="223.5 101.81 179.5 57.81 185.5 95.81 223.5 101.81"/>
      <polygon class="cls-12" points="185.5 95.81 144.5 57.81 179.5 57.81 185.5 95.81"/>
      <polygon class="cls-12" points="144.5 57.81 157.5 11.81 179.5 57.81 144.5 57.81"/>
      <polygon class="cls-13" points="144.5 57.81 115.5 9.81 157.5 11.81 144.5 57.81"/>
      <polygon class="cls-14" points="426.5 166.81 495.5 116.81 495.5 236.81 426.5 166.81"/>
      <polygon class="cls-15" points="426.5 166.81 386.5 95.81 495.5 116.81 426.5 166.81"/>
      <polygon class="cls-16" points="386.5 95.81 342.5 155.81 426.5 166.81 386.5 95.81"/>
      <polygon class="cls-17" points="386.5 95.81 303.5 136.81 342.5 155.81 386.5 95.81"/>
      <polygon class="cls-10" points="342.5 155.81 274.5 136.81 303.5 136.81 342.5 155.81"/>
      <polygon class="cls-18" points="342.5 155.81 332.5 168.81 274.5 136.81 342.5 155.81"/>
      <polygon class="cls-12" points="383 96.31 500 8.31 496 119.31 383 96.31"/>
      <polygon class="cls-16" points="386.5 95.81 361.5 38.81 436 61.31 386.5 95.81"/>
      <polygon class="cls-12" points="361.5 38.81 351.5 9.81 429.5 9.81 361.5 38.81"/>
      <polygon class="cls-19" points="429.5 9.81 433.5 62.81 361.5 38.81 429.5 9.81"/>
      <polygon class="cls-13" points="429.5 9.81 495.5 22.81 433.5 62.81 429.5 9.81"/>
      <polygon class="cls-19" points="495 24.31 429 9.31 500 8.31 495 24.31"/>
      <polygon id="leaf" class="cls-20" points="139 155.31 145 179.31 116 196.31 116 169.31 139 155.31"/>
      <polygon id="leaf-2" data-name="leaf" class="cls-21" points="150.6 174.72 170.78 189.02 159.85 220.81 142.26 200.32 150.6 174.72"/>
      <polygon id="leaf-3" data-name="leaf" class="cls-22" points="179.6 155.72 199.78 170.02 188.85 201.81 171.26 181.32 179.6 155.72"/>
      <polygon id="leaf-4" data-name="leaf" class="cls-20" points="338.6 52.72 358.78 67.02 347.85 98.81 330.26 78.32 338.6 52.72"/>
      <polygon id="leaf-5" data-name="leaf" class="cls-22" points="313.61 31 324.41 53.26 299.52 75.85 293.97 49.43 313.61 31"/>
      <polygon id="leaf-6" data-name="leaf" class="cls-21" points="275.66 0.4 295.11 15.69 282.6 46.9 266.06 25.55 275.66 0.4"/>
      <polygon id="leaf-7" data-name="leaf" class="cls-20" points="346.61 0 357.41 22.26 332.52 44.85 326.97 18.43 346.61 0"/>
      <polygon id="leaf-8" data-name="leaf" class="cls-22" points="381.61 14 392.41 36.26 367.52 58.85 361.97 32.43 381.61 14"/>
      <polygon id="leaf-9" data-name="leaf" class="cls-22" points="166 131.31 172 155.31 143 172.31 143 145.31 166 131.31"/>
      <polygon id="leaf-10" data-name="leaf" class="cls-22" points="154.01 107.98 149.07 132.22 115.58 135.05 127.22 110.69 154.01 107.98"/>
      <polygon id="leaf-11" data-name="leaf" class="cls-21" points="111.01 141.98 106.07 166.22 72.58 169.05 84.22 144.69 111.01 141.98"/>
      <polygon id="leaf-12" data-name="leaf" class="cls-20" points="187 55.31 193 79.31 164 96.31 164 69.31 187 55.31"/>
      <polygon id="leaf-13" data-name="leaf" class="cls-22" points="147 63.31 153 87.31 124 104.31 124 77.31 147 63.31"/>
      <polygon id="leaf-14" data-name="leaf" class="cls-22" points="110 56.31 116 80.31 87 97.31 87 70.31 110 56.31"/>
      <polygon id="leaf-15" data-name="leaf" class="cls-22" points="124 0.31 130 24.31 101 41.31 101 14.31 124 0.31"/>
      <polygon id="leaf-16" data-name="leaf" class="cls-20" points="108.68 48.66 88.25 62.62 62.24 41.33 87.56 31.95 108.68 48.66"/>
      <polygon id="leaf-17" data-name="leaf" class="cls-22" points="170.68 48.66 150.25 62.62 124.24 41.33 149.56 31.95 170.68 48.66"/>
      <polygon id="leaf-18" data-name="leaf" class="cls-20" points="100.68 115.66 80.25 129.62 54.24 108.33 79.56 98.95 100.68 115.66"/>
      <polygon id="leaf-19" data-name="leaf" class="cls-20" points="33 55.31 21 78.31 0 55.31 33 55.31"/>
      <polygon id="leaf-20" data-name="leaf" class="cls-21" points="73 67.31 61 90.31 40 67.31 73 67.31"/>
      <polygon id="leaf-21" data-name="leaf" class="cls-20" points="225 205.31 213 228.31 192 205.31 225 205.31"/>
      <polygon id="leaf-22" data-name="leaf" class="cls-20" points="275 51.31 263 74.31 242 51.31 275 51.31"/>
      <polygon id="leaf-23" data-name="leaf" class="cls-21" points="54 20.31 50 47.31 21 24.31 54 20.31"/>
      <polygon id="leaf-24" data-name="leaf" class="cls-22" points="249 10.31 245 37.31 216 14.31 249 10.31"/>
      <polygon id="leaf-25" data-name="leaf" class="cls-20" points="219.65 20.06 226.19 46.56 190.63 36.28 219.65 20.06"/>
    </g>
  </g>
</svg>
