<svg xmlns="http://www.w3.org/2000/svg" viewBox="0 0 500.5 283.81">
  <defs>
    <style>
      .clsr-1 {
        fill: #b05107;
      }

      .clsr-2 {
        fill: #af5006;
      }

      .clsr-3 {
        fill: #b5530a;
      }

      .clsr-4 {
        fill: #af5008;
      }

      .clsr-5 {
        fill: #a14901;
      }

      .clsr-6 {
        fill: #940;
      }

      .clsr-7 {
        fill: #9a4400;
      }

      .clsr-8 {
        fill: #924000;
      }

      .clsr-9 {
        fill: #8b3d00;
      }

      .clsr-10 {
        fill: #8f3e00;
      }

      .clsr-11 {
        fill: #833800;
      }

      .clsr-12 {
        fill: #7c3400;
      }

      .clsr-13 {
        fill: #5c2400;
      }

      .clsr-14 {
        fill: #8c3d00;
      }

      .clsr-15 {
        fill: #803600;
      }

      .clsr-16 {
        fill: #893c00;
      }

      .clsr-17 {
        fill: #873b00;
      }

      .clsr-18 {
        fill: #914000;
      }

      .clsr-19 {
        fill: #803c0f;
      }

      .clsr-20 {
        fill: #f47b22;
      }

      .clsr-21 {
        fill: #ffd04f;
      }

      .clsr-22 {
        fill: #faab3c;
      }
    </style>
  </defs>
  <title>yellow-tree</title>
  <g id="Layer_2" data-name="Layer 2">
    <g id="Layer_4" data-name="Layer 4">
      <polygon class="clsr-1" points="4 251.81 40 270.81 0 283.81 4 251.81"/>
      <polygon class="clsr-2" points="40 270.81 53 236.81 4 251.81 40 270.81"/>
      <polygon class="clsr-3" points="40 270.81 95 253.81 53 236.81 40 270.81"/>
      <polygon class="clsr-2" points="95 253.81 114 206.81 53 236.81 95 253.81"/>
      <polygon class="clsr-4" points="114 206.81 158 206.81 95 253.81 114 206.81"/>
      <polygon class="clsr-5" points="158 206.81 168 168.81 114 206.81 158 206.81"/>
      <polygon class="clsr-5" points="158 206.81 205 175.81 168 168.81 158 206.81"/>
      <polygon class="clsr-6" points="205 175.81 230.5 134.31 168 168.81 205 175.81"/>
      <polygon class="clsr-7" points="229.5 135.31 257 178.81 194.5 174.31 229.5 135.31"/>
      <polygon class="clsr-8" points="257 178.81 303 141.81 228.5 136.31 257 178.81"/>
      <polygon class="clsr-7" points="257 178.81 324 171.81 303 141.81 257 178.81"/>
      <polygon class="clsr-9" points="324 171.81 339 119.81 303 141.81 324 171.81"/>
      <polygon class="clsr-10" points="339 119.81 362 141.81 324 171.81 339 119.81"/>
      <polygon class="clsr-11" points="227.5 137.31 277 101.81 276.5 141.31 227.5 137.31"/>
      <polygon class="clsr-12" points="275.5 143.31 315 95.81 277 101.81 275.5 143.31"/>
      <polygon class="clsr-8" points="277 101.81 321 57.81 315 95.81 277 101.81"/>
      <polygon class="clsr-12" points="315 95.81 356 57.81 321 57.81 315 95.81"/>
      <polygon class="clsr-12" points="356 57.81 343 11.81 321 57.81 356 57.81"/>
      <polygon class="clsr-13" points="356 57.81 385 9.81 343 11.81 356 57.81"/>
      <polygon class="clsr-14" points="74 166.81 5 116.81 5 236.81 74 166.81"/>
      <polygon class="clsr-15" points="74 166.81 114 95.81 5 116.81 74 166.81"/>
      <polygon class="clsr-16" points="114 95.81 158 155.81 74 166.81 114 95.81"/>
      <polygon class="clsr-17" points="114 95.81 197 136.81 158 155.81 114 95.81"/>
      <polygon class="clsr-10" points="158 155.81 226 136.81 197 136.81 158 155.81"/>
      <polygon class="clsr-18" points="158 155.81 168 168.81 226 136.81 158 155.81"/>
      <polygon class="clsr-12" points="117.5 96.31 0.5 8.31 4.5 119.31 117.5 96.31"/>
      <polygon class="clsr-16" points="114 95.81 139 38.81 64.5 61.31 114 95.81"/>
      <polygon class="clsr-12" points="139 38.81 149 9.81 71 9.81 139 38.81"/>
      <polygon class="clsr-19" points="71 9.81 67 62.81 139 38.81 71 9.81"/>
      <polygon class="clsr-13" points="71 9.81 5 22.81 67 62.81 71 9.81"/>
      <polygon class="clsr-19" points="5.5 24.31 71.5 9.31 0.5 8.31 5.5 24.31"/>
      <polygon class="clsr-20" points="361.5 155.31 355.5 179.31 384.5 196.31 384.5 169.31 361.5 155.31"/>
      <polygon class="clsr-21" points="349.9 174.72 329.72 189.02 340.65 220.81 358.24 200.32 349.9 174.72"/>
      <polygon class="clsr-22" points="320.9 155.72 300.72 170.02 311.65 201.81 329.24 181.32 320.9 155.72"/>
      <polygon class="clsr-20" points="161.9 52.72 141.72 67.02 152.65 98.81 170.24 78.32 161.9 52.72"/>
      <polygon class="clsr-22" points="186.89 31 176.09 53.26 200.98 75.85 206.53 49.43 186.89 31"/>
      <polygon class="clsr-21" points="224.84 0.4 205.4 15.69 217.9 46.9 234.44 25.55 224.84 0.4"/>
      <polygon class="clsr-20" points="153.89 0 143.09 22.26 167.98 44.85 173.53 18.43 153.89 0"/>
      <polygon class="clsr-22" points="118.89 14 108.09 36.26 132.98 58.85 138.53 32.43 118.89 14"/>
      <polygon class="clsr-22" points="334.5 131.31 328.5 155.31 357.5 172.31 357.5 145.31 334.5 131.31"/>
      <polygon class="clsr-22" points="346.49 107.98 351.43 132.22 384.92 135.05 373.28 110.69 346.49 107.98"/>
      <polygon class="clsr-21" points="389.49 141.98 394.43 166.22 427.92 169.05 416.28 144.69 389.49 141.98"/>
      <polygon class="clsr-20" points="313.5 55.31 307.5 79.31 336.5 96.31 336.5 69.31 313.5 55.31"/>
      <polygon class="clsr-22" points="353.5 63.31 347.5 87.31 376.5 104.31 376.5 77.31 353.5 63.31"/>
      <polygon class="clsr-22" points="390.5 56.31 384.5 80.31 413.5 97.31 413.5 70.31 390.5 56.31"/>
      <polygon class="clsr-22" points="376.5 0.31 370.5 24.31 399.5 41.31 399.5 14.31 376.5 0.31"/>
      <polygon class="clsr-20" points="391.82 48.66 412.25 62.62 438.26 41.33 412.94 31.95 391.82 48.66"/>
      <polygon class="clsr-22" points="329.82 48.66 350.25 62.62 376.26 41.33 350.94 31.95 329.82 48.66"/>
      <polygon class="clsr-20" points="399.82 115.66 420.25 129.62 446.26 108.33 420.94 98.95 399.82 115.66"/>
      <polygon class="clsr-20" points="467.5 55.31 479.5 78.31 500.5 55.31 467.5 55.31"/>
      <polygon class="clsr-21" points="427.5 67.31 439.5 90.31 460.5 67.31 427.5 67.31"/>
      <polygon class="clsr-20" points="275.5 205.31 287.5 228.31 308.5 205.31 275.5 205.31"/>
      <polygon class="clsr-20" points="225.5 51.31 237.5 74.31 258.5 51.31 225.5 51.31"/>
      <polygon class="clsr-21" points="446.5 20.31 450.5 47.31 479.5 24.31 446.5 20.31"/>
      <polygon class="clsr-22" points="251.5 10.31 255.5 37.31 284.5 14.31 251.5 10.31"/>
      <polygon class="clsr-20" points="280.85 20.06 274.31 46.56 309.87 36.28 280.85 20.06"/>
    </g>
  </g>
</svg>
